# xmcd
#
# Track frame offsets:
#	150
#	14040
#	30047
#	50387
#	61492
#	74322
#	83967
#	99132
#	113847
#	135485
#	150592
#	163170
#	175730
#	188257
#	203015
#	215845
#	226655
#	242992
#	258127
#	270320
#
# Disc length: 3722 seconds
#
# Revision: 1
# Processed by: cddbd v1.4PL0 Copyright (c) Steve Scherf et al.
# Submitted via: audiograbber 1.80
#
DISCID=fc0e8814
DTITLE=Liu and Léu - Raizes Sertanejas
DYEAR=1900
DGENRE=
TTITLE0=Saudade Da Minha Terra
TTITLE1=Pioneiro Do Sertão
TTITLE2=Casinha De Praia
TTITLE3=Saudade De Um Grande Amor
TTITLE4=Recordação
TTITLE5=Essa Terra É Boa
TTITLE6=Amor Felicidade
TTITLE7=Vida Fingida
TTITLE8=Legítmo Doutor
TTITLE9=A Noite Do Nosso Amor
TTITLE10=Aliança De Noivado
TTITLE11=Mulher Da Minha Vida
TTITLE12=Caboclo Abençoado
TTITLE13=O Direito De Amar
TTITLE14=Encoste A Porta De Mansinho
TTITLE15=Quando Meu Bem Me Disse Adeus
TTITLE16=Travessia Do Araguaia
TTITLE17=Apenas Um Pecado
TTITLE18=Conselho De Filho
TTITLE19=Capricho Da Vida
EXTD=
EXTT0=
EXTT1=
EXTT2=
EXTT3=
EXTT4=
EXTT5=
EXTT6=
EXTT7=
EXTT8=
EXTT9=
EXTT10=
EXTT11=
EXTT12=
EXTT13=
EXTT14=
EXTT15=
EXTT16=
EXTT17=
EXTT18=
EXTT19=
PLAYORDER=
